<?xml version="1.0" encoding="UTF-8" standalone="no"?>
<!-- Created with Inkscape (http://www.inkscape.org/) -->

<svg
   width="112.16192mm"
   height="49.545292mm"
   viewBox="0 0 112.16192 49.545292"
   version="1.1"
   id="svg1"
   inkscape:version="1.3 (0e150ed, 2023-07-21)"
   sodipodi:docname="citizencoderlogo.svg"
   xmlns:inkscape="http://www.inkscape.org/namespaces/inkscape"
   xmlns:sodipodi="http://sodipodi.sourceforge.net/DTD/sodipodi-0.dtd"
   xmlns="http://www.w3.org/2000/svg"
   xmlns:svg="http://www.w3.org/2000/svg">
  <sodipodi:namedview
     id="namedview1"
     pagecolor="#ffffff"
     bordercolor="#000000"
     borderopacity="0.25"
     inkscape:showpageshadow="2"
     inkscape:pageopacity="0.0"
     inkscape:pagecheckerboard="0"
     inkscape:deskcolor="#d1d1d1"
     inkscape:document-units="mm"
     inkscape:zoom="0.4204826"
     inkscape:cx="344.84185"
     inkscape:cy="120.10009"
     inkscape:window-width="1312"
     inkscape:window-height="712"
     inkscape:window-x="0"
     inkscape:window-y="25"
     inkscape:window-maximized="0"
     inkscape:current-layer="layer1" />
  <defs
     id="defs1">
    <clipPath
       id="8e6b930163">
      <path
         d="M 120,68.859375 H 256 V 209.85937 H 120 Z m 0,0"
         clip-rule="nonzero"
         id="path1" />
    </clipPath>
    <clipPath
       id="a487f422ba">
      <path
         d="m 197.98047,163.95312 c 8.77734,0 12.67578,7.3125 18.52734,13.16407 2.92578,2.92578 8.29297,2.92578 11.21875,0 l 14.14063,-14.14063 c 2.92578,-2.92578 2.92578,-8.28906 0,-11.21484 l -14.14063,-14.14453 c -5.36719,-5.36328 -11.70312,-8.77735 -7.3164,-12.1875 1.94921,-1.46485 3.41406,-2.44141 6.82812,-2.44141 5.36328,0 7.3125,4.39063 11.21484,7.80469 1.94922,1.94922 4.87891,1.94922 6.82813,0 l 8.77734,-8.77734 c 1.94922,-1.95313 1.94922,-4.87891 0,-6.82813 l -8.77734,-8.77734 c -1.94922,-1.94922 -4.87891,-1.94922 -6.82813,0 -3.41406,3.41406 -6.33984,8.28906 -11.21484,8.28906 -4.87891,0 -7.80469,-4.875 -11.21484,-8.28906 -1.95313,-1.94922 -4.87891,-1.94922 -6.82813,0 l -8.77734,8.77734 c -1.95313,1.94922 -1.95313,4.875 0,6.82813 7.3125,7.31249 19.5039,11.70312 13.65234,18.53124 -4.38672,5.36329 -9.26562,11.21485 -16.08984,11.21485 -8.29297,0 -13.16797,-8.28906 -19.01953,-14.14453 -2.92578,-2.92578 -8.28907,-2.92578 -11.21485,0 l -14.14453,14.14453 c -2.92578,2.92578 -2.92578,8.28906 0,11.21484 l 11.70703,11.70313 2.4375,2.4375 c 2.92578,2.92578 8.28907,2.92578 11.21485,0 6.33984,-6.33985 9.7539,-13.16407 19.01953,-13.16407 z m -14.62891,-55.10546 27.30469,27.30859 c -3.41016,4.39062 -8.28906,9.75391 -12.67578,9.75391 -5.85156,0 -11.70313,-8.77735 -15.60547,-12.67969 -4.87891,-4.875 -13.16797,-4.875 -18.53125,0 l -14.14063,14.14062 c -4.8789,4.87891 -4.8789,13.16797 0,18.53125 l 14.14063,14.14063 c 4.875,4.8789 13.16797,4.8789 18.53125,0 4.38672,-4.38672 8.77734,-11.70313 15.60547,-11.70313 5.36328,0 9.26562,4.87891 12.67578,9.26563 l -27.30469,27.30859 c -5.85547,5.85156 -15.11719,5.85156 -20.97265,0 l -37.54688,-37.54687 c -5.85156,-5.85157 -5.85156,-15.11719 0,-20.96875 l 37.54688,-37.55078 c 5.85546,-5.85157 15.11718,-5.85157 20.97265,0 z m 49.73828,-28.769535 5.36328,5.363281 c 1.46485,1.460938 3.90235,1.460938 5.36329,0 l 5.36718,-5.363281 c 1.46094,-1.464844 1.46094,-3.902344 0,-5.367187 l -5.36718,-5.363282 c -1.46094,-1.460937 -3.89844,-1.460937 -5.36329,0 l -5.36328,5.363282 c -1.46484,1.464843 -1.46484,3.902343 0,5.367187 z m 0,0"
         clip-rule="evenodd"
         id="path2" />
    </clipPath>
    <linearGradient
       x1="0.114279"
       gradientTransform="matrix(48.764602,0,0,48.764602,119.95566,68.861058)"
       y1="3.0257211"
       x2="2.9649999"
       gradientUnits="userSpaceOnUse"
       y2="0.175"
       id="d8937c0aa1">
      <stop
         stop-opacity="1"
         stop-color="rgb(100%, 56.898499%, 30.198669%)"
         offset="0"
         id="stop2" />
      <stop
         stop-opacity="1"
         stop-color="rgb(100%, 56.898499%, 30.198669%)"
         offset="0.125"
         id="stop3" />
      <stop
         stop-opacity="1"
         stop-color="rgb(100%, 56.898499%, 30.198669%)"
         offset="0.15625"
         id="stop4" />
      <stop
         stop-opacity="1"
         stop-color="rgb(100%, 56.918335%, 30.204773%)"
         offset="0.171875"
         id="stop5" />
      <stop
         stop-opacity="1"
         stop-color="rgb(100%, 57.044983%, 30.238342%)"
         offset="0.179687"
         id="stop6" />
      <stop
         stop-opacity="1"
         stop-color="rgb(100%, 57.255554%, 30.296326%)"
         offset="0.1875"
         id="stop7" />
      <stop
         stop-opacity="1"
         stop-color="rgb(100%, 57.466125%, 30.354309%)"
         offset="0.195312"
         id="stop8" />
      <stop
         stop-opacity="1"
         stop-color="rgb(100%, 57.676697%, 30.410767%)"
         offset="0.203125"
         id="stop9" />
      <stop
         stop-opacity="1"
         stop-color="rgb(100%, 57.885742%, 30.46875%)"
         offset="0.210938"
         id="stop10" />
      <stop
         stop-opacity="1"
         stop-color="rgb(100%, 58.096313%, 30.526733%)"
         offset="0.21875"
         id="stop11" />
      <stop
         stop-opacity="1"
         stop-color="rgb(100%, 58.306885%, 30.583191%)"
         offset="0.226562"
         id="stop12" />
      <stop
         stop-opacity="1"
         stop-color="rgb(100%, 58.517456%, 30.641174%)"
         offset="0.234375"
         id="stop13" />
      <stop
         stop-opacity="1"
         stop-color="rgb(100%, 58.728027%, 30.699158%)"
         offset="0.242187"
         id="stop14" />
      <stop
         stop-opacity="1"
         stop-color="rgb(100%, 58.938599%, 30.755615%)"
         offset="0.25"
         id="stop15" />
      <stop
         stop-opacity="1"
         stop-color="rgb(100%, 59.14917%, 30.813599%)"
         offset="0.257812"
         id="stop16" />
      <stop
         stop-opacity="1"
         stop-color="rgb(100%, 59.359741%, 30.871582%)"
         offset="0.265625"
         id="stop17" />
      <stop
         stop-opacity="1"
         stop-color="rgb(100%, 59.570312%, 30.929565%)"
         offset="0.273438"
         id="stop18" />
      <stop
         stop-opacity="1"
         stop-color="rgb(100%, 59.780884%, 30.986023%)"
         offset="0.28125"
         id="stop19" />
      <stop
         stop-opacity="1"
         stop-color="rgb(100%, 59.991455%, 31.044006%)"
         offset="0.289062"
         id="stop20" />
      <stop
         stop-opacity="1"
         stop-color="rgb(100%, 60.202026%, 31.10199%)"
         offset="0.296875"
         id="stop21" />
      <stop
         stop-opacity="1"
         stop-color="rgb(100%, 60.412598%, 31.158447%)"
         offset="0.304688"
         id="stop22" />
      <stop
         stop-opacity="1"
         stop-color="rgb(100%, 60.623169%, 31.216431%)"
         offset="0.3125"
         id="stop23" />
      <stop
         stop-opacity="1"
         stop-color="rgb(100%, 60.83374%, 31.274414%)"
         offset="0.320312"
         id="stop24" />
      <stop
         stop-opacity="1"
         stop-color="rgb(100%, 61.044312%, 31.330872%)"
         offset="0.328125"
         id="stop25" />
      <stop
         stop-opacity="1"
         stop-color="rgb(100%, 61.253357%, 31.388855%)"
         offset="0.335938"
         id="stop26" />
      <stop
         stop-opacity="1"
         stop-color="rgb(100%, 61.463928%, 31.446838%)"
         offset="0.34375"
         id="stop27" />
      <stop
         stop-opacity="1"
         stop-color="rgb(100%, 61.6745%, 31.503296%)"
         offset="0.351562"
         id="stop28" />
      <stop
         stop-opacity="1"
         stop-color="rgb(100%, 61.885071%, 31.561279%)"
         offset="0.359375"
         id="stop29" />
      <stop
         stop-opacity="1"
         stop-color="rgb(100%, 62.095642%, 31.619263%)"
         offset="0.367187"
         id="stop30" />
      <stop
         stop-opacity="1"
         stop-color="rgb(100%, 62.306213%, 31.677246%)"
         offset="0.375"
         id="stop31" />
      <stop
         stop-opacity="1"
         stop-color="rgb(100%, 62.516785%, 31.733704%)"
         offset="0.382812"
         id="stop32" />
      <stop
         stop-opacity="1"
         stop-color="rgb(100%, 62.727356%, 31.791687%)"
         offset="0.390625"
         id="stop33" />
      <stop
         stop-opacity="1"
         stop-color="rgb(100%, 62.937927%, 31.84967%)"
         offset="0.398437"
         id="stop34" />
      <stop
         stop-opacity="1"
         stop-color="rgb(100%, 63.148499%, 31.906128%)"
         offset="0.40625"
         id="stop35" />
      <stop
         stop-opacity="1"
         stop-color="rgb(100%, 63.35907%, 31.964111%)"
         offset="0.414062"
         id="stop36" />
      <stop
         stop-opacity="1"
         stop-color="rgb(100%, 63.569641%, 32.022095%)"
         offset="0.421875"
         id="stop37" />
      <stop
         stop-opacity="1"
         stop-color="rgb(100%, 63.780212%, 32.078552%)"
         offset="0.429687"
         id="stop38" />
      <stop
         stop-opacity="1"
         stop-color="rgb(100%, 63.990784%, 32.136536%)"
         offset="0.4375"
         id="stop39" />
      <stop
         stop-opacity="1"
         stop-color="rgb(100%, 64.201355%, 32.194519%)"
         offset="0.445313"
         id="stop40" />
      <stop
         stop-opacity="1"
         stop-color="rgb(100%, 64.411926%, 32.250977%)"
         offset="0.453125"
         id="stop41" />
      <stop
         stop-opacity="1"
         stop-color="rgb(100%, 64.620972%, 32.30896%)"
         offset="0.460938"
         id="stop42" />
      <stop
         stop-opacity="1"
         stop-color="rgb(100%, 64.831543%, 32.366943%)"
         offset="0.46875"
         id="stop43" />
      <stop
         stop-opacity="1"
         stop-color="rgb(100%, 65.042114%, 32.424927%)"
         offset="0.476562"
         id="stop44" />
      <stop
         stop-opacity="1"
         stop-color="rgb(100%, 65.252686%, 32.481384%)"
         offset="0.484375"
         id="stop45" />
      <stop
         stop-opacity="1"
         stop-color="rgb(100%, 65.463257%, 32.539368%)"
         offset="0.492188"
         id="stop46" />
      <stop
         stop-opacity="1"
         stop-color="rgb(100%, 65.673828%, 32.597351%)"
         offset="0.492858"
         id="stop47" />
      <stop
         stop-opacity="1"
         stop-color="rgb(100%, 65.779114%, 32.626343%)"
         offset="0.5"
         id="stop48" />
      <stop
         stop-opacity="1"
         stop-color="rgb(100%, 65.884399%, 32.653809%)"
         offset="0.507142"
         id="stop49" />
      <stop
         stop-opacity="1"
         stop-color="rgb(100%, 65.989685%, 32.6828%)"
         offset="0.507812"
         id="stop50" />
      <stop
         stop-opacity="1"
         stop-color="rgb(100%, 66.094971%, 32.711792%)"
         offset="0.515625"
         id="stop51" />
      <stop
         stop-opacity="1"
         stop-color="rgb(100%, 66.305542%, 32.769775%)"
         offset="0.523438"
         id="stop52" />
      <stop
         stop-opacity="1"
         stop-color="rgb(100%, 66.516113%, 32.826233%)"
         offset="0.53125"
         id="stop53" />
      <stop
         stop-opacity="1"
         stop-color="rgb(100%, 66.726685%, 32.884216%)"
         offset="0.539062"
         id="stop54" />
      <stop
         stop-opacity="1"
         stop-color="rgb(100%, 66.937256%, 32.9422%)"
         offset="0.546875"
         id="stop55" />
      <stop
         stop-opacity="1"
         stop-color="rgb(100%, 67.147827%, 32.998657%)"
         offset="0.554688"
         id="stop56" />
      <stop
         stop-opacity="1"
         stop-color="rgb(100%, 67.358398%, 33.056641%)"
         offset="0.5625"
         id="stop57" />
      <stop
         stop-opacity="1"
         stop-color="rgb(100%, 67.56897%, 33.114624%)"
         offset="0.570312"
         id="stop58" />
      <stop
         stop-opacity="1"
         stop-color="rgb(100%, 67.779541%, 33.172607%)"
         offset="0.578125"
         id="stop59" />
      <stop
         stop-opacity="1"
         stop-color="rgb(100%, 67.988586%, 33.229065%)"
         offset="0.585937"
         id="stop60" />
      <stop
         stop-opacity="1"
         stop-color="rgb(100%, 68.199158%, 33.287048%)"
         offset="0.59375"
         id="stop61" />
      <stop
         stop-opacity="1"
         stop-color="rgb(100%, 68.409729%, 33.345032%)"
         offset="0.601562"
         id="stop62" />
      <stop
         stop-opacity="1"
         stop-color="rgb(100%, 68.6203%, 33.401489%)"
         offset="0.609375"
         id="stop63" />
      <stop
         stop-opacity="1"
         stop-color="rgb(100%, 68.830872%, 33.459473%)"
         offset="0.617187"
         id="stop64" />
      <stop
         stop-opacity="1"
         stop-color="rgb(100%, 69.041443%, 33.517456%)"
         offset="0.625"
         id="stop65" />
      <stop
         stop-opacity="1"
         stop-color="rgb(100%, 69.252014%, 33.573914%)"
         offset="0.632812"
         id="stop66" />
      <stop
         stop-opacity="1"
         stop-color="rgb(100%, 69.462585%, 33.631897%)"
         offset="0.640625"
         id="stop67" />
      <stop
         stop-opacity="1"
         stop-color="rgb(100%, 69.673157%, 33.68988%)"
         offset="0.648437"
         id="stop68" />
      <stop
         stop-opacity="1"
         stop-color="rgb(100%, 69.883728%, 33.746338%)"
         offset="0.65625"
         id="stop69" />
      <stop
         stop-opacity="1"
         stop-color="rgb(100%, 70.094299%, 33.804321%)"
         offset="0.664062"
         id="stop70" />
      <stop
         stop-opacity="1"
         stop-color="rgb(100%, 70.304871%, 33.862305%)"
         offset="0.671875"
         id="stop71" />
      <stop
         stop-opacity="1"
         stop-color="rgb(100%, 70.515442%, 33.920288%)"
         offset="0.679688"
         id="stop72" />
      <stop
         stop-opacity="1"
         stop-color="rgb(100%, 70.726013%, 33.976746%)"
         offset="0.6875"
         id="stop73" />
      <stop
         stop-opacity="1"
         stop-color="rgb(100%, 70.936584%, 34.034729%)"
         offset="0.695312"
         id="stop74" />
      <stop
         stop-opacity="1"
         stop-color="rgb(100%, 71.147156%, 34.092712%)"
         offset="0.703125"
         id="stop75" />
      <stop
         stop-opacity="1"
         stop-color="rgb(100%, 71.356201%, 34.14917%)"
         offset="0.710938"
         id="stop76" />
      <stop
         stop-opacity="1"
         stop-color="rgb(100%, 71.566772%, 34.207153%)"
         offset="0.71875"
         id="stop77" />
      <stop
         stop-opacity="1"
         stop-color="rgb(100%, 71.777344%, 34.265137%)"
         offset="0.726562"
         id="stop78" />
      <stop
         stop-opacity="1"
         stop-color="rgb(100%, 71.987915%, 34.321594%)"
         offset="0.734375"
         id="stop79" />
      <stop
         stop-opacity="1"
         stop-color="rgb(100%, 72.198486%, 34.379578%)"
         offset="0.742188"
         id="stop80" />
      <stop
         stop-opacity="1"
         stop-color="rgb(100%, 72.409058%, 34.437561%)"
         offset="0.75"
         id="stop81" />
      <stop
         stop-opacity="1"
         stop-color="rgb(100%, 72.619629%, 34.494019%)"
         offset="0.757812"
         id="stop82" />
      <stop
         stop-opacity="1"
         stop-color="rgb(100%, 72.8302%, 34.552002%)"
         offset="0.765625"
         id="stop83" />
      <stop
         stop-opacity="1"
         stop-color="rgb(100%, 73.040771%, 34.609985%)"
         offset="0.773438"
         id="stop84" />
      <stop
         stop-opacity="1"
         stop-color="rgb(100%, 73.251343%, 34.667969%)"
         offset="0.78125"
         id="stop85" />
      <stop
         stop-opacity="1"
         stop-color="rgb(100%, 73.461914%, 34.724426%)"
         offset="0.789063"
         id="stop86" />
      <stop
         stop-opacity="1"
         stop-color="rgb(100%, 73.672485%, 34.78241%)"
         offset="0.796875"
         id="stop87" />
      <stop
         stop-opacity="1"
         stop-color="rgb(100%, 73.937988%, 34.855652%)"
         offset="0.8125"
         id="stop88" />
      <stop
         stop-opacity="1"
         stop-color="rgb(100%, 74.099731%, 34.899902%)"
         offset="0.875"
         id="stop89" />
      <stop
         stop-opacity="1"
         stop-color="rgb(100%, 74.099731%, 34.899902%)"
         offset="1"
         id="stop90" />
    </linearGradient>
  </defs>
  <g
     inkscape:label="Layer 1"
     inkscape:groupmode="layer"
     id="layer1"
     transform="translate(-18.539653,-118.53023)">
    <g
       clip-path="url(#8e6b930163)"
       id="g92"
       transform="matrix(0.35277777,0,0,0.35277777,-23.950087,94.238169)">
      <g
         clip-path="url(#a487f422ba)"
         id="g91">
        <path
           fill="url(#d8937c0aa1)"
           d="M 118.98047,68.859375 V 209.85937 H 256.00781 V 68.859375 Z m 0,0"
           fill-rule="nonzero"
           id="path91"
           style="fill:url(#d8937c0aa1)" />
      </g>
    </g>
    <g
       fill="#d9d9d9"
       fill-opacity="1"
       id="g95"
       transform="matrix(0.35277777,0,0,0.35277777,36.456693,53.966983)">
      <g
         transform="translate(105.97425,267.32039)"
         id="g94">
        <g
           id="g93">
          <path
             d="m 11.625,0.390625 c -3.0625,0 -5.515625,-0.957031 -7.359375,-2.875 -1.835937,-1.925781 -2.75,-4.5625 -2.75,-7.90625 v -19.34375 c 0,-4.15625 0.828125,-7.289063 2.484375,-9.40625 1.65625,-2.125 4.257812,-3.1875 7.8125,-3.1875 3.09375,0 5.582031,0.851563 7.46875,2.546875 1.882812,1.6875 2.828125,4.132812 2.828125,7.328125 v 7.21875 h -8.34375 V -31.4375 c 0,-1.195312 -0.148437,-2.023438 -0.4375,-2.484375 -0.292969,-0.457031 -0.796875,-0.6875 -1.515625,-0.6875 -0.75,0 -1.265625,0.261719 -1.546875,0.78125 -0.273437,0.523437 -0.40625,1.289063 -0.40625,2.296875 V -10.5 c 0,1.117188 0.160156,1.921875 0.484375,2.421875 0.332031,0.5 0.820312,0.75 1.46875,0.75 1.300781,0 1.953125,-1.054687 1.953125,-3.171875 v -7.5625 h 8.4375 v 7.90625 c 0,7.03125 -3.527344,10.546875 -10.578125,10.546875 z m 0,0"
             id="path92" />
        </g>
      </g>
    </g>
    <g
       fill="#d9d9d9"
       fill-opacity="1"
       id="g98"
       transform="matrix(0.35277777,0,0,0.35277777,36.456693,53.966983)">
      <g
         transform="translate(134.77319,267.32039)"
         id="g97">
        <g
           id="g96">
          <path
             d="M 1.46875,0 V -41.9375 H 9.5625 V 0 Z m 0,0"
             id="path95" />
        </g>
      </g>
    </g>
    <g
       fill="#d9d9d9"
       fill-opacity="1"
       id="g101"
       transform="matrix(0.35277777,0,0,0.35277777,36.456693,53.966983)">
      <g
         transform="translate(151.51578,267.32039)"
         id="g100">
        <g
           id="g99">
          <path
             d="M 5.46875,0 V -33.875 H 0.484375 v -8.0625 H 18.84375 v 8.0625 H 13.859375 V 0 Z m 0,0"
             id="path98" />
        </g>
      </g>
    </g>
    <g
       fill="#d9d9d9"
       fill-opacity="1"
       id="g104"
       transform="matrix(0.35277777,0,0,0.35277777,36.456693,53.966983)">
      <g
         transform="translate(176.50745,267.32039)"
         id="g103">
        <g
           id="g102">
          <path
             d="M 1.46875,0 V -41.9375 H 9.5625 V 0 Z m 0,0"
             id="path101" />
        </g>
      </g>
    </g>
    <g
       fill="#d9d9d9"
       fill-opacity="1"
       id="g107"
       transform="matrix(0.35277777,0,0,0.35277777,36.456693,53.966983)">
      <g
         transform="translate(193.25003,267.32039)"
         id="g106">
        <g
           id="g105">
          <path
             d="m 0.78125,0 v -7.609375 l 9.5625,-26.609375 H 1.703125 v -7.71875 h 17.53125 v 7.328125 l -9.8125,26.890625 h 9.375 V 0 Z m 0,0"
             id="path104" />
        </g>
      </g>
    </g>
    <g
       fill="#d9d9d9"
       fill-opacity="1"
       id="g110"
       transform="matrix(0.35277777,0,0,0.35277777,36.456693,53.966983)">
      <g
         transform="translate(218.92506,267.32039)"
         id="g109">
        <g
           id="g108">
          <path
             d="m 1.859375,0 v -41.9375 h 16.78125 v 8.109375 h -8.25 v 8.15625 h 7.90625 v 7.90625 h -7.90625 V -8.15625 H 19.1875 V 0 Z m 0,0"
             id="path107" />
        </g>
      </g>
    </g>
    <g
       fill="#d9d9d9"
       fill-opacity="1"
       id="g113"
       transform="matrix(0.35277777,0,0,0.35277777,36.456693,53.966983)">
      <g
         transform="translate(244.69771,267.32039)"
         id="g112">
        <g
           id="g111">
          <path
             d="M 1.859375,0 V -41.9375 H 10.5 l 3.84375,20.0625 v -20.0625 h 8.109375 V 0 H 14.25 L 10.0625,-20.984375 V 0 Z m 0,0"
             id="path110" />
        </g>
      </g>
    </g>
    <g
       fill="#ff5757"
       fill-opacity="1"
       id="g116"
       transform="matrix(0.35277777,0,0,0.35277777,36.456693,53.966983)">
      <g
         transform="translate(108.89943,312.28888)"
         id="g115">
        <g
           id="g114">
          <path
             d="m 14.546875,0.53125 c -2.648437,0 -4.992187,-0.52734375 -7.03125,-1.578125 -2.03125,-1.050781 -3.605469,-2.546875 -4.71875,-4.484375 -1.105469,-1.9375 -1.65625,-4.222656 -1.65625,-6.859375 0,-2.625 0.550781,-4.910156 1.65625,-6.859375 1.113281,-1.945312 2.6875,-3.445312 4.71875,-4.5 2.039063,-1.050781 4.382813,-1.578125 7.03125,-1.578125 3.425781,0 6.289063,0.777344 8.59375,2.328125 v 5.109375 c -1.042969,-0.875 -2.234375,-1.503906 -3.578125,-1.890625 -1.335938,-0.394531 -2.851562,-0.59375 -4.546875,-0.59375 -2.585937,0 -4.625,0.71875 -6.125,2.15625 -1.5,1.429688 -2.25,3.371094 -2.25,5.828125 0,2.492187 0.753906,4.453125 2.265625,5.890625 1.507812,1.429688 3.546875,2.140625 6.109375,2.140625 1.75,0 3.296875,-0.207031 4.640625,-0.625 1.351562,-0.414063 2.609375,-1.082031 3.765625,-2 V -1.875 c -2.179687,1.605469 -5.136719,2.40625 -8.875,2.40625 z m 0,0"
             id="path113" />
        </g>
      </g>
    </g>
    <g
       fill="#ff5757"
       fill-opacity="1"
       id="g119"
       transform="matrix(0.35277777,0,0,0.35277777,36.456693,53.966983)">
      <g
         transform="translate(142.57647,312.28888)"
         id="g118">
        <g
           id="g117">
          <path
             d="m 14.40625,0.53125 c -2.480469,0 -4.734375,-0.5390625 -6.765625,-1.625 C 5.617188,-2.1875 4.03125,-3.707031 2.875,-5.65625 1.71875,-7.613281 1.140625,-9.859375 1.140625,-12.390625 c 0,-2.53125 0.578125,-4.773437 1.734375,-6.734375 1.15625,-1.96875 2.742188,-3.492188 4.765625,-4.578125 2.03125,-1.082031 4.285156,-1.625 6.765625,-1.625 2.476562,0 4.71875,0.542969 6.71875,1.625 2,1.085937 3.578125,2.609375 4.734375,4.578125 1.164063,1.960938 1.75,4.203125 1.75,6.734375 0,2.53125 -0.585937,4.777344 -1.75,6.734375 -1.15625,1.949219 -2.734375,3.46875 -4.734375,4.5625 -2,1.0859375 -4.242188,1.625 -6.71875,1.625 z m 0,-4.96875 c 1.414062,0 2.707031,-0.320312 3.875,-0.96875 1.175781,-0.65625 2.109375,-1.578125 2.796875,-2.765625 0.6875,-1.195313 1.03125,-2.601563 1.03125,-4.21875 0,-1.582031 -0.339844,-2.96875 -1.015625,-4.15625 -0.679688,-1.195313 -1.601562,-2.117187 -2.765625,-2.765625 -1.167969,-0.65625 -2.476563,-0.984375 -3.921875,-0.984375 -1.46875,0 -2.792969,0.328125 -3.96875,0.984375 -1.167969,0.648438 -2.09375,1.570312 -2.78125,2.765625 -0.679688,1.1875 -1.015625,2.574219 -1.015625,4.15625 0,1.617187 0.335937,3.023437 1.015625,4.21875 0.6875,1.1875 1.617188,2.109375 2.796875,2.765625 1.1875,0.648438 2.503906,0.96875 3.953125,0.96875 z m 0,0"
             id="path116" />
        </g>
      </g>
    </g>
    <g
       fill="#ff5757"
       fill-opacity="1"
       id="g122"
       transform="matrix(0.35277777,0,0,0.35277777,36.456693,53.966983)">
      <g
         transform="translate(180.40517,312.28888)"
         id="g121">
        <g
           id="g120">
          <path
             d="m 1.84375,-24.796875 h 8.625 c 2.695312,0 5.050781,0.496094 7.0625,1.484375 2.007812,0.992188 3.554688,2.414062 4.640625,4.265625 1.09375,1.84375 1.640625,4.015625 1.640625,6.515625 0,4.117188 -1.203125,7.234375 -3.609375,9.359375 C 17.804688,-1.054688 14.46875,0 10.1875,0 H 1.84375 Z M 10.46875,-4.5 c 2.53125,0 4.46875,-0.707031 5.8125,-2.125 1.351562,-1.425781 2.03125,-3.394531 2.03125,-5.90625 0,-1.488281 -0.296875,-2.820312 -0.890625,-4 -0.59375,-1.1875 -1.460937,-2.109375 -2.59375,-2.765625 -1.136719,-0.664063 -2.46875,-1 -4,-1 H 7.234375 V -4.5 Z m 0,0"
             id="path119" />
        </g>
      </g>
    </g>
    <g
       fill="#ff5757"
       fill-opacity="1"
       id="g125"
       transform="matrix(0.35277777,0,0,0.35277777,36.456693,53.966983)">
      <g
         transform="translate(214.43705,312.28888)"
         id="g124">
        <g
           id="g123">
          <path
             d="M 1.84375,-24.796875 H 19.0625 v 4.5 H 7.234375 v 5.75 H 15.9375 v 4.328125 H 7.234375 V -4.5 H 19.0625 V 0 H 1.84375 Z m 0,0"
             id="path122" />
        </g>
      </g>
    </g>
    <g
       fill="#ff5757"
       fill-opacity="1"
       id="g128"
       transform="matrix(0.35277777,0,0,0.35277777,36.456693,53.966983)">
      <g
         transform="translate(243.35917,312.28888)"
         id="g127">
        <g
           id="g126">
          <path
             d="m 1.84375,-24.796875 h 10.75 c 2.8125,0 5.003906,0.703125 6.578125,2.109375 1.570313,1.40625 2.359375,3.433594 2.359375,6.078125 0,1.84375 -0.429688,3.414063 -1.28125,4.703125 -0.84375,1.292969 -2.046875,2.234375 -3.609375,2.828125 L 21.359375,0 h -5.53125 L 11.46875,-8.40625 H 7.234375 V 0 H 1.84375 Z m 9.796875,11.875 c 1.375,0 2.457031,-0.289063 3.25,-0.875 0.789063,-0.59375 1.1875,-1.53125 1.1875,-2.8125 0,-1.34375 -0.390625,-2.289063 -1.171875,-2.84375 -0.78125,-0.5625 -1.871094,-0.84375 -3.265625,-0.84375 h -4.40625 v 7.375 z m 0,0"
             id="path125" />
        </g>
      </g>
    </g>
  </g>
</svg>
